<svg xmlns="http://www.w3.org/2000/svg" viewBox="0 0 512 512">
  <path d="M459.4 151.7c.3 4.1.3 8.3.3 12.5 0 127.6-97.2 274.8-274.8 274.8-54.7 0-105.6-16-148.5-43.4 7.6.9 15.2 1.2 23 .1 45.3-5.4 86.8-31 112.4-66.3-42.4-.8-78-28.8-90.3-67.2 5.9.9 11.9 1.4 18.2 1.4 8.7 0 17.1-1.1 25.1-3.3-44.2-8.9-77.4-47.8-77.4-94.5v-1.2c13 7.2 27.9 11.5 43.7 12-25.8-17.2-42.8-46.4-42.8-79.6 0-17.6 4.7-34.2 13-48.4 47.3 58 118 96 197.8 100-1.6-7-2.5-14.3-2.5-21.8 0-52.3 42.4-94.7 94.7-94.7 27.2 0 51.7 11.5 68.9 29.9 21.5-4.1 41.7-12 59.8-22.7-7.1 22.1-22.1 40.7-41.7 52.5 19.1-2.2 37.3-7.3 54.2-14.7-12.7 18.9-28.8 35.7-47.4 49z"></path>
</svg>
