<svg xmlns="http://www.w3.org/2000/svg" viewBox="0 0 496 512">
  <path fill="currentColor" d="M165.9 397.4c0 2-2.3 3.6-5.2 3.6-2.9 0-5.2-1.6-5.2-3.6 0-2 2.3-3.6 5.2-3.6 2.9 0 5.2 1.6 5.2 3.6zm-33.1-6.9c-.7 2.1 1.5 4.5 4.4 5.4 2.9.9 6.2-.1 6.9-2.3.7-2.1-1.5-4.5-4.4-5.4-2.9-.9-6.2.1-6.9 2.3zm44.2-1.1c-2.9.8-4.8 3.1-4.3 5.5.5 2.4 3.2 3.8 6.1 3 2.9-.8 4.8-3.1 4.3-5.5-.5-2.4-3.2-3.8-6.1-3zm44.2-2c-2.6 1.7-3.3 4.8-1.7 7.1 1.7 2.4 5.3 2.7 7.9 1s3.3-4.8 1.7-7.1c-1.7-2.4-5.3-2.7-7.9-1zm44.8-.7c-.3 2.6 2.1 4.9 5.4 5.2 3.3.3 6.1-1.5 6.4-4.1.3-2.6-2.1-4.9-5.4-5.2-3.3-.3-6.1 1.5-6.4 4.1zm50.5 4.7c.6 2.6 3.6 4 6.6 3.2 3-.9 4.9-3.5 4.3-6.1-.6-2.6-3.6-4-6.6-3.2-3 .9-4.9 3.5-4.3 6.1zm43.9 6.5c1.3 2.4 5 2.6 8.2.4 3.2-2.2 4.4-6.1 3.1-8.5-1.3-2.4-5-2.6-8.2-.4-3.2 2.2-4.4 6.1-3.1 8.5zm39.7 8.2c2.6 1.5 6.2.1 8.1-3.2 1.9-3.3 1.3-7.2-1.3-8.7-2.6-1.5-6.2-.1-8.1 3.2-1.9 3.3-1.3 7.2 1.3 8.7zM248 8C111 8 0 119 0 256c0 110.6 71.8 204.5 171.5 237.6 12.5 2.3 17.1-5.4 17.1-12v-44.2c-69.8 15.2-84.5-33.7-84.5-33.7-11.4-29-27.9-36.7-27.9-36.7-22.8-15.6 1.7-15.3 1.7-15.3 25.2 1.8 38.5 25.8 38.5 25.8 22.4 38.4 58.8 27.3 73.2 20.9 2.3-16.2 8.8-27.4 16-33.7-55.7-6.3-114.3-27.9-114.3-124.3 0-27.5 9.8-50 25.8-67.6-2.6-6.3-11.2-31.8 2.5-66.3 0 0 21-6.7 68.8 25.7 20-5.6 41.5-8.4 62.9-8.5 21.3.1 42.9 2.9 62.9 8.5 47.8-32.4 68.8-25.7 68.8-25.7 13.7 34.5 5.1 60 2.5 66.3 16 17.6 25.8 40.1 25.8 67.6 0 96.7-58.7 118-114.6 124.2 9 7.7 17 23 17 46.3v68.7c0 6.6 4.5 14.4 17.2 12C424.3 460.4 496 366.6 496 256 496 119 385 8 248 8z"></path>
</svg>
